<?xml version="1.0" encoding="utf-8"?>
<!-- Generator: Adobe Illustrator 24.0.1, SVG Export Plug-In . SVG Version: 6.00 Build 0)  -->
<svg version="1.1" id="Layer_1" xmlns="http://www.w3.org/2000/svg" xmlns:xlink="http://www.w3.org/1999/xlink" x="0px" y="0px"
	 viewBox="0 0 400 400" style="enable-background:new 0 0 400 400;" xml:space="preserve">
<style type="text/css">
	.st0{display:none;}
	.st1{display:inline;fill:#5F6673;}
	.st2{fill:#23F6F5;}
	.st3{fill:#35373D;}
	.st4{display:none;fill:#23F6F5;}
</style>
<text transform="matrix(1 0 0 1 -776.6512 61.4342)" class="st2" style="font-family:'Anurati-Regular'; font-size:36px;">M</text>
<text transform="matrix(1 0 0 1 -776.6512 61.4342)" style="fill:#05DBF2; font-family:'Anurati-Regular'; font-size:36px;">Z</text>
<g class="st0">
	<path class="st1" d="M-650.9,152.8v9.2l-71,71.3l-47.4-47.2v84.6h-23.4V129.1l70.8,70.8l47.2-47L-650.9,152.8z"/>
</g>
<rect x="-792.6" y="129.1" class="st2" width="141.7" height="23.7"/>
<g>
	<path class="st3" d="M-768.8,152.9l47.2,47l70.8-70.8v141.6h-23.4v-84.6l-47.4,47.2l-71-71.3v-9.2L-768.8,152.9z"/>
</g>
<polygon class="st2" points="-650.9,247 -650.9,270.7 -792.6,270.7 -744.1,247 "/>
<polygon class="st2" points="-741.5,253.3 -792.6,270.7 -738.4,216.6 -721.6,233.4 "/>
<g>
	<defs>
		<rect id="SVGID_1_" x="1111.5" y="586.3" width="509.4" height="580.4"/>
	</defs>
	<clipPath id="SVGID_2_">
		<use xlink:href="#SVGID_1_"  style="overflow:visible;"/>
	</clipPath>
	<g style="clip-path:url(#SVGID_2_);">
		
			<image style="overflow:visible;" width="3763" height="2744" xlink:href="2009_0319markus0322.JPG"  transform="matrix(-0.3642 0 0 0.3642 1891.6438 537.7639)">
		</image>
	</g>
</g>
<g>
	<defs>
		<rect id="SVGID_3_" x="501.4" y="586.3" width="509.4" height="580.4"/>
	</defs>
	<clipPath id="SVGID_4_">
		<use xlink:href="#SVGID_3_"  style="overflow:visible;"/>
	</clipPath>
	<g style="clip-path:url(#SVGID_4_);">
		
			<image style="overflow:visible;" width="2762" height="3978" xlink:href="2009_0319markus0289.JPG"  transform="matrix(0.2275 0 0 0.2275 498.7 584.8182)">
		</image>
	</g>
</g>
<g>
	<defs>
		<rect id="SVGID_5_" x="-56.9" y="587.3" width="513.8" height="580.4"/>
	</defs>
	<clipPath id="SVGID_6_">
		<use xlink:href="#SVGID_5_"  style="overflow:visible;"/>
	</clipPath>
	<g transform="matrix(1 0 0 1 0 0)" style="clip-path:url(#SVGID_6_);">
		
			<image style="overflow:visible;" width="2762" height="4042" xlink:href="2009_0319markus0317.JPG"  transform="matrix(0.2413 0 0 0.2413 -93.0297 579.1235)">
		</image>
	</g>
</g>
<g>
	<defs>
		<rect id="SVGID_7_" x="-642" y="587.3" width="509.4" height="580.4"/>
	</defs>
	<clipPath id="SVGID_8_">
		<use xlink:href="#SVGID_7_"  style="overflow:visible;"/>
	</clipPath>
	<g style="clip-path:url(#SVGID_8_);">
		
			<image style="overflow:visible;" width="2756" height="3929" xlink:href="2009_0319markus0315_V2.jpg"  transform="matrix(0.2335 0 0 0.2335 -650.8564 581.216)">
		</image>
	</g>
</g>
<text transform="matrix(1 0 0 1 -772.8154 403.6897)" style="font-family:'MyriadPro-Regular'; font-size:72px;">{</text>
<g>
	<polygon class="st2" points="334.1,333 334.1,161 161.8,333 	"/>
	<polygon class="st2" points="200.3,200 333.1,67 67,67.1 	"/>
	<polygon class="st2" points="-0.9,92.1 -1.3,401.3 153.1,247 	"/>
</g>
<polygon class="st4" points="0,0 0,67 333.1,67 200.3,200 67,67.1 0,67 0,93 200.3,294.5 334.1,161 334.1,333 161.8,333 
	200.3,294.5 153.1,247 0,400 334.1,400 400,400 400,333 400,67 400,0 "/>
</svg>
